<?xml version="1.0" encoding="utf-8"?>
<!-- Generator: Adobe Illustrator 18.1.1, SVG Export Plug-In . SVG Version: 6.00 Build 0)  -->
<!DOCTYPE svg PUBLIC "-//W3C//DTD SVG 1.1//EN" "http://www.w3.org/Graphics/SVG/1.1/DTD/svg11.dtd">
<svg version="1.1" id="Layer_1" xmlns="http://www.w3.org/2000/svg" xmlns:xlink="http://www.w3.org/1999/xlink" x="0px" y="0px"
	 viewBox="-231.4 495.1 613.2 479.5" enable-background="new -231.4 495.1 613.2 479.5" xml:space="preserve">
<title>Fill 3</title>
<desc>Created with Sketch.</desc>
<path fill="#B3B3B3" d="M381.4,920.9c0,15-5,27.8-15.4,38.2c-10.4,10.4-23.7,15.4-39.5,15.4h-502.3c-15.8,0-29.1-5-39.5-15.4
	c-10.4-10.4-15.4-23.3-15.4-38.2V650.4c7.9,8.7,19.5,18.7,34.5,29.9c92.7,62.7,149.2,101.8,169.9,116.7c3.3,2.5,7.1,5.4,12,8.7
	c5,3.7,8.7,6.2,11.2,8.3c2.9,2.1,5.4,3.7,7.9,5.4c12,6.2,22.9,12,32.4,16.6c16.6,5.4,29.5,8.3,38.2,8.3c8.7,0,21.6-2.9,38.2-8.3
	c9.6-4.6,20.4-10.4,32.4-16.6c2.5-1.7,5-3.3,7.9-5.4c2.9-2.1,6.6-4.6,11.2-8.3c5-3.7,8.7-6.6,12-8.7c73.5-50.7,130-89.7,169.9-116.7
	c15-11.2,26.6-21.2,34.5-29.9v270.5H381.4L381.4,920.9z M364.8,601.4c-9.6,14.1-23.7,28.3-42,41.5
	c-78.1,54.8-131.3,91.8-160.4,110.9l-2.5,2.5c-1.7,0.8-3.3,2.1-5.4,3.7c-2.1,1.7-4.2,3.3-6.6,4.6c-2.5,1.7-8.3,5.8-17.9,12.9
	c-5,2.5-10.8,5.8-17.9,10.8l-19.1,9.6c-9.6,1.7-15.4,2.5-17.9,2.5s-8.3-0.8-17.9-2.5l-5-2.5c-1.7-0.8-2.9-1.2-4.2-1.7
	s-2.9-1.2-5-2.5c-2.1-1.2-3.7-2.1-5.4-2.9c-7.1-4.6-13.3-8.3-17.9-10.8c-9.6-7.1-15.4-11.6-17.9-12.9c-2.5-1.7-4.6-3.3-6.6-4.6
	c-2.1-1.7-3.7-2.9-5.4-3.7l-2.5-2.5c-7.9-4.6-22-14.1-42.4-28.7c-20.4-14.1-36.1-25.3-47.4-33.2c-11.2-7.1-22.4-14.5-33.7-22.9
	c-11.2-7.9-19.5-13.7-24.9-17.9s-9.6-6.6-12-8.3c-14.5-9.6-27.4-22.4-39.5-39.5c-12.9-15.8-19.1-31.6-19.1-46.5
	c0-17.5,5-32.4,14.5-44c9.6-12,23.3-17.9,40.7-17.9h502.3c14.5,0,27,5.4,38.2,16.6c11.2,11.2,16.6,23.7,16.6,38.2
	C381.4,566.9,376,584,364.8,601.4L364.8,601.4z"/>
</svg>
