<svg xmlns="http://www.w3.org/2000/svg" viewBox="0 0 234.3 217" enable-background="new 0 0 234.3 217"><path fill="#fff" d="M200.9 0H16C7.2 0 0 7 0 15.6v185.7C0 210 7.2 217 16 217h184.9c8.9 0 16.1-7 16.1-15.7V15.6C217 7 209.8 0 200.9 0zM64.4 184.9H32.2V81.4h32.2v103.5zM48.3 67.2c-10.3 0-18.7-8.4-18.7-18.7 0-10.3 8.3-18.7 18.7-18.7 10.3 0 18.7 8.4 18.7 18.7-.1 10.3-8.4 18.7-18.7 18.7zm136.6 117.7h-32.2v-50.4c0-12-.2-27.5-16.7-27.5-16.7 0-19.3 13.1-19.3 26.6v51.2H84.5V81.4h30.9v14.2h.4c4.3-8.1 14.8-16.7 30.5-16.7 32.6 0 38.6 21.5 38.6 49.3v56.7zm37.4-5.4h1.7v5.4h1v-5.4h1.7v-1h-4.4zm10.6-1l-1.8 4.7-1.9-4.7h-1.4v6.4h1V180l1.9 4.9h.7l1.9-4.9v4.9h1v-6.4z"/></svg>